<svg width="112.8" height="112.8" xmlns="http://www.w3.org/2000/svg" xml:space="preserve"><g stroke="null"><path fill="#FFF" d="M-43.333-27.917h202V195.75h-202z"/><path d="M112.618 56.531c0 30.976-25.11 56.087-56.084 56.087-30.973 0-56.081-25.11-56.081-56.087C.453 25.561 25.56.452 56.533.452c30.976 0 56.085 25.108 56.085 56.08z"/><path d="M81.056 21.202c-5.697.195-10.67 3.34-14.373 7.68-4.1 4.765-6.824 10.411-8.791 16.18-3.514-2.882-6.223-6.61-11.864-8.233-4.36-1.253-8.936-.737-13.146 2.4-1.992 1.488-3.367 3.737-4.02 5.858-1.692 5.498 1.778 10.396 3.354 12.151l3.447 3.691c.709.725 2.422 2.613 1.584 5.32-.9 2.946-4.451 4.85-8.092 3.73-1.627-.499-3.963-1.71-3.44-3.413.216-.699.716-1.225.985-1.82.244-.522.363-.908.438-1.14.665-2.17-.245-4.995-2.57-5.714-2.171-.666-4.391-.138-5.252 2.655-.977 3.174.543 8.935 8.68 11.441 9.536 2.935 17.598-2.259 18.743-9.026.72-4.239-1.195-7.392-4.701-11.44l-2.86-3.164c-1.73-1.729-2.323-4.677-.532-6.942 1.512-1.912 3.664-2.726 7.19-1.768 5.15 1.396 7.444 4.97 11.272 7.851-1.578 5.187-2.613 10.392-3.547 15.06l-.574 3.48C50.25 80.391 48.16 88.274 42.73 92.8c-1.094.78-2.658 1.943-5.014 2.027-1.238.037-1.637-.814-1.654-1.186-.027-.865.703-1.264 1.188-1.652.727-.396 1.824-1.053 1.748-3.156-.078-2.484-2.137-4.639-5.111-4.54-2.23.074-5.625 2.17-5.497 6.01.13 3.967 3.827 6.938 9.4 6.75 2.98-.102 9.634-1.312 16.189-9.105 7.63-8.935 9.766-19.175 11.372-26.67l1.793-9.898c.992.12 2.059.2 3.217.228 9.504.201 14.256-4.72 14.328-8.302.049-2.167-1.42-4.302-3.48-4.25-1.47.04-3.32 1.021-3.761 3.056-.436 1.995 3.023 3.798.32 5.553-1.92 1.242-5.361 2.116-10.21 1.407l.882-4.872c1.799-9.238 4.018-20.6 12.436-20.878.615-.029 2.857.026 2.91 1.512.014.493-.11.623-.69 1.757-.591.884-.813 1.64-.784 2.504.08 2.356 1.873 3.908 4.47 3.818 3.474-.116 4.47-3.496 4.413-5.233-.146-4.085-4.45-6.665-10.14-6.477z" fill="#FFF"/></g></svg>